<?xml version="1.0" encoding="UTF-8"?>
<svg xmlns="http://www.w3.org/2000/svg" xmlns:xlink="http://www.w3.org/1999/xlink" width="96px" height="96px" viewBox="0 0 96 96" version="1.1">
<g id="surface1">
<path style=" stroke:none;fill-rule:nonzero;fill:rgb(0%,0%,0%);fill-opacity:1;" d="M 46.453125 15.910156 C 41.839844 16.179688 38.023438 17.148438 33.964844 19.085938 C 28.695312 21.589844 23.867188 25.882812 20.757812 30.84375 C 18.421875 34.554688 16.949219 38.382812 16.273438 42.46875 C 15.648438 46.320312 15.609375 49.003906 16.132812 52.640625 C 17.128906 59.585938 20.222656 65.710938 25.3125 70.78125 C 28.273438 73.742188 31.179688 75.703125 35.4375 77.597656 C 37.761719 78.636719 41.550781 79.601562 44.671875 79.960938 C 48.84375 80.4375 53.671875 79.921875 57.796875 78.570312 C 63.554688 76.6875 68.691406 73.257812 72.476562 68.765625 C 76.539062 63.929688 78.945312 58.519531 79.835938 52.21875 C 80.035156 50.792969 80.109375 47.222656 79.976562 45.429688 C 79.679688 41.34375 78.589844 37.453125 76.6875 33.648438 C 72.207031 24.675781 63.804688 18.335938 53.8125 16.414062 C 51.75 16.023438 48.421875 15.789062 46.453125 15.910156 Z M 51.65625 18.234375 C 58.480469 19.171875 64.453125 22.085938 69.148438 26.765625 C 70.734375 28.351562 71.839844 29.679688 72.984375 31.40625 C 75.589844 35.324219 76.976562 39.066406 77.773438 44.34375 C 77.980469 45.675781 78.007812 49.695312 77.832031 51.140625 C 77.257812 55.574219 76.292969 58.714844 74.371094 62.296875 C 71.597656 67.480469 67.152344 71.839844 61.78125 74.652344 C 58.695312 76.265625 54.964844 77.398438 51.328125 77.832031 C 50.015625 77.980469 45.929688 77.980469 44.625 77.832031 C 42.007812 77.523438 39.195312 76.835938 37.125 76.011719 C 36.007812 75.5625 35.839844 75.488281 34.367188 74.746094 C 31.574219 73.351562 29.089844 71.558594 26.757812 69.234375 C 24.910156 67.40625 23.765625 65.992188 22.507812 63.992188 C 20.183594 60.300781 18.824219 56.570312 18.167969 52.085938 C 18 50.886719 17.960938 50.25 17.960938 47.953125 C 17.953125 45.570312 17.980469 45.054688 18.167969 43.828125 C 18.835938 39.523438 20.089844 35.980469 22.210938 32.445312 C 23.765625 29.859375 26.4375 26.785156 28.78125 24.890625 C 31.257812 22.894531 34.5 21.007812 37.3125 19.929688 C 39.414062 19.132812 42.515625 18.414062 44.785156 18.1875 C 45.347656 18.140625 45.945312 18.074219 46.125 18.054688 C 46.835938 17.972656 50.632812 18.09375 51.65625 18.234375 Z M 51.65625 18.234375 "/>
<path style=" stroke:none;fill-rule:nonzero;fill:rgb(0%,0%,0%);fill-opacity:1;" d="M 47.8125 26.898438 C 47.445312 27.007812 46.941406 27.28125 46.714844 27.496094 C 46.519531 27.675781 46.472656 27.675781 45.9375 27.5625 C 45.628906 27.496094 45.132812 27.46875 44.832031 27.496094 C 43.238281 27.636719 42.234375 29.109375 42.835938 30.429688 C 43.03125 30.863281 43.585938 31.359375 44.035156 31.507812 C 44.363281 31.613281 44.398438 31.742188 44.289062 32.335938 C 44.195312 32.792969 42.984375 33.554688 41.664062 33.984375 C 41.089844 34.164062 40.378906 34.460938 40.070312 34.648438 C 39.179688 35.183594 38.390625 36.019531 37.949219 36.917969 C 37.585938 37.648438 37.554688 37.742188 37.519531 38.699219 C 37.480469 39.617188 37.5 39.777344 37.773438 40.59375 L 38.054688 41.476562 L 37.828125 41.867188 C 37.40625 42.582031 36.609375 43.125 35.960938 43.125 C 35.617188 43.125 35.183594 42.757812 35.023438 42.328125 C 34.929688 42.09375 34.800781 41.878906 34.734375 41.839844 C 34.667969 41.792969 33.976562 40.414062 33.195312 38.765625 C 32.417969 37.117188 31.726562 35.757812 31.660156 35.738281 C 31.480469 35.699219 31.050781 36.355469 30.882812 36.898438 C 30.515625 38.109375 30.824219 39.554688 31.902344 41.71875 C 32.550781 43.03125 32.523438 43.003906 33.347656 42.675781 L 33.84375 42.46875 L 33.9375 42.664062 C 34.023438 42.804688 34.011719 42.890625 33.929688 42.992188 C 33.757812 43.199219 33.871094 43.988281 34.125 44.34375 C 34.246094 44.511719 34.480469 44.710938 34.660156 44.773438 C 34.828125 44.851562 35.023438 45.019531 35.082031 45.140625 C 35.210938 45.429688 35.476562 45.515625 35.8125 45.375 C 36.101562 45.253906 36.226562 45.027344 36.132812 44.785156 C 36.09375 44.671875 36.167969 44.625 36.535156 44.570312 C 36.777344 44.539062 37.238281 44.410156 37.539062 44.289062 C 37.847656 44.164062 38.101562 44.0625 38.109375 44.0625 C 38.109375 44.0625 38.101562 44.492188 38.082031 45.019531 C 38.035156 46.144531 38.15625 46.800781 38.558594 47.570312 C 39.320312 48.992188 40.566406 49.820312 42.402344 50.109375 C 42.742188 50.164062 42.75 50.175781 42.75 50.558594 C 42.75 50.785156 42.804688 51.1875 42.882812 51.46875 C 43.03125 52.039062 43.011719 52.125 42.742188 52.125 C 42.449219 52.125 42.207031 52.292969 42.066406 52.574219 C 41.898438 52.914062 41.960938 53.148438 42.242188 53.257812 C 42.589844 53.382812 43.976562 53.363281 44.25 53.222656 C 44.464844 53.117188 44.492188 53.035156 44.550781 52.292969 C 44.625 51.289062 44.878906 50.042969 45.019531 49.960938 C 45.226562 49.828125 46.601562 49.679688 47.042969 49.734375 C 47.289062 49.773438 47.8125 49.882812 48.226562 49.976562 C 48.628906 50.082031 49.191406 50.195312 49.480469 50.230469 C 49.988281 50.296875 50.007812 50.304688 50.082031 50.625 C 50.117188 50.804688 50.195312 51.414062 50.25 51.984375 C 50.316406 52.621094 50.398438 53.0625 50.484375 53.148438 C 50.652344 53.324219 52.386719 53.410156 52.667969 53.257812 C 53.128906 53.015625 52.808594 52.3125 52.171875 52.132812 C 51.964844 52.078125 51.898438 52.011719 51.917969 51.882812 C 51.929688 51.789062 51.992188 51.347656 52.058594 50.914062 L 52.179688 50.117188 L 52.902344 49.753906 C 53.832031 49.285156 54.648438 48.496094 55.433594 47.296875 C 56.222656 46.085938 56.617188 45.289062 56.8125 44.550781 L 56.972656 43.949219 L 57.757812 43.929688 C 58.425781 43.902344 58.695312 43.835938 59.539062 43.507812 C 60.890625 42.984375 61.3125 42.535156 61.3125 41.644531 C 61.3125 40.378906 59.746094 40.257812 59.0625 41.476562 C 58.914062 41.738281 58.753906 42 58.695312 42.066406 C 58.507812 42.273438 57.824219 42.402344 57.375 42.320312 C 56.960938 42.234375 56.953125 42.234375 56.710938 41.550781 C 56.4375 40.808594 56.296875 40.601562 55.378906 39.582031 C 54.609375 38.726562 54.421875 38.324219 54.140625 36.917969 C 53.851562 35.457031 53.503906 34.734375 52.714844 33.964844 C 51.9375 33.214844 51.9375 33.09375 52.734375 33.09375 C 53.980469 33.09375 54.65625 32.410156 54.65625 31.152344 C 54.65625 30.515625 54.289062 29.785156 53.785156 29.398438 C 53.34375 29.0625 52.6875 28.789062 52.3125 28.78125 C 52.023438 28.773438 51.957031 28.726562 51.703125 28.285156 C 51.375 27.722656 50.632812 27.160156 49.929688 26.953125 C 49.445312 26.804688 48.214844 26.773438 47.8125 26.898438 Z M 50.15625 27.496094 C 50.972656 27.882812 51.402344 28.367188 51.722656 29.230469 C 51.910156 29.757812 52.097656 29.859375 52.050781 29.410156 C 52.011719 29.101562 52.164062 29.082031 52.828125 29.316406 C 53.960938 29.699219 54.609375 31.039062 54.101562 31.96875 C 53.867188 32.410156 53.230469 32.746094 52.734375 32.691406 C 52.351562 32.652344 51.121094 32.117188 50.765625 31.835938 C 50.578125 31.6875 50.578125 31.6875 50.839844 31.492188 C 51.207031 31.210938 51.148438 31.070312 50.765625 31.304688 C 50.578125 31.40625 50.15625 31.546875 49.828125 31.613281 C 49.144531 31.734375 49.179688 31.882812 49.875 31.867188 C 50.222656 31.847656 50.398438 31.914062 50.886719 32.230469 C 51.214844 32.445312 51.570312 32.644531 51.675781 32.679688 C 51.835938 32.726562 51.851562 32.792969 51.796875 33.121094 C 51.582031 34.492188 51.535156 34.679688 51.394531 34.734375 C 51.085938 34.867188 49.039062 34.894531 48.273438 34.78125 C 46.902344 34.585938 45.414062 34.085938 44.757812 33.601562 L 44.464844 33.382812 L 44.605469 32.605469 C 44.679688 32.175781 44.757812 31.78125 44.765625 31.726562 C 44.785156 31.667969 44.992188 31.574219 45.234375 31.507812 C 45.695312 31.398438 46.125 31.164062 46.125 31.023438 C 46.125 30.984375 45.929688 31.011719 45.695312 31.097656 C 44.671875 31.445312 43.574219 31.050781 43.199219 30.214844 C 42.636719 28.949219 43.882812 27.683594 45.507812 27.882812 C 46.179688 27.964844 46.257812 28.03125 46.085938 28.359375 C 45.871094 28.773438 46.011719 28.78125 46.332031 28.378906 C 46.6875 27.9375 47.335938 27.476562 47.851562 27.320312 C 48.460938 27.113281 49.546875 27.195312 50.15625 27.496094 Z M 44.484375 33.9375 C 45.816406 34.847656 48.730469 35.464844 50.679688 35.242188 C 51.710938 35.128906 51.890625 35.015625 51.976562 34.460938 C 52.011719 34.226562 52.078125 34.03125 52.117188 34.03125 C 52.226562 34.03125 52.894531 34.773438 53.128906 35.15625 C 53.382812 35.597656 53.578125 36.242188 53.765625 37.265625 C 53.960938 38.390625 54.308594 39.074219 55.171875 40.011719 C 57.101562 42.132812 57.074219 43.988281 55.078125 47.0625 C 54.460938 48.007812 53.4375 49.011719 52.761719 49.339844 C 51.476562 49.960938 50.371094 50.023438 48.5625 49.59375 C 47.136719 49.257812 46.171875 49.226562 44.792969 49.5 C 43.660156 49.714844 42.535156 49.734375 41.8125 49.546875 C 40.078125 49.085938 38.867188 47.839844 38.523438 46.152344 C 38.417969 45.664062 38.417969 45.402344 38.539062 44.605469 C 38.765625 42.984375 38.710938 42.121094 38.324219 40.921875 C 37.761719 39.207031 37.761719 38.25 38.34375 37.058594 C 38.972656 35.792969 39.910156 35.0625 41.757812 34.414062 C 42.441406 34.171875 43.21875 33.824219 43.5 33.636719 C 43.96875 33.320312 44.015625 33.300781 44.042969 33.46875 C 44.0625 33.570312 44.257812 33.789062 44.484375 33.9375 Z M 32.945312 39 C 33.648438 40.492188 34.21875 41.757812 34.21875 41.792969 C 34.21875 41.90625 32.785156 42.554688 32.679688 42.488281 C 32.550781 42.414062 31.621094 40.414062 31.351562 39.609375 C 30.992188 38.578125 30.976562 37.460938 31.304688 36.769531 C 31.433594 36.496094 31.566406 36.28125 31.59375 36.28125 C 31.632812 36.28125 32.242188 37.5 32.945312 39 Z M 32.945312 39 "/>
<path style=" stroke:none;fill-rule:nonzero;fill:rgb(0%,0%,0%);fill-opacity:1;" d="M 50.644531 34.453125 C 50.644531 34.601562 50.664062 34.660156 50.691406 34.566406 C 50.710938 34.480469 50.710938 34.351562 50.691406 34.285156 C 50.664062 34.226562 50.644531 34.292969 50.644531 34.453125 Z M 50.644531 34.453125 "/>
<path style=" stroke:none;fill-rule:nonzero;fill:rgb(0%,0%,0%);fill-opacity:1;" d="M 44.183594 39.609375 C 44.0625 39.695312 43.929688 39.9375 43.867188 40.144531 C 43.59375 41.164062 44.464844 42 45.074219 41.289062 C 45.273438 41.0625 45.300781 40.960938 45.261719 40.472656 C 45.226562 40.003906 45.179688 39.871094 44.960938 39.683594 C 44.664062 39.429688 44.464844 39.414062 44.183594 39.609375 Z M 44.484375 40.171875 C 44.484375 40.386719 44.445312 40.453125 44.296875 40.453125 C 44.101562 40.453125 44.007812 40.21875 44.101562 39.976562 C 44.203125 39.710938 44.484375 39.863281 44.484375 40.171875 Z M 44.484375 40.171875 "/>
<path style=" stroke:none;fill-rule:nonzero;fill:rgb(0%,0%,0%);fill-opacity:1;" d="M 49.125 39.703125 C 48.816406 40.03125 48.796875 40.828125 49.085938 41.222656 C 49.367188 41.597656 49.875 41.632812 50.148438 41.289062 C 50.503906 40.835938 50.351562 39.695312 49.921875 39.523438 C 49.613281 39.414062 49.339844 39.46875 49.125 39.703125 Z M 49.59375 40.070312 C 49.59375 40.351562 49.40625 40.527344 49.246094 40.398438 C 49.097656 40.265625 49.085938 40.011719 49.226562 39.871094 C 49.386719 39.710938 49.59375 39.835938 49.59375 40.070312 Z M 49.59375 40.070312 "/>
<path style=" stroke:none;fill-rule:nonzero;fill:rgb(0%,0%,0%);fill-opacity:1;" d="M 45.816406 41.597656 C 45.488281 41.914062 46.414062 42.75 47.082031 42.75 C 47.671875 42.742188 48.542969 42.027344 48.402344 41.664062 C 48.320312 41.445312 48.101562 41.511719 47.804688 41.859375 C 47.550781 42.148438 47.457031 42.1875 47.0625 42.1875 C 46.667969 42.1875 46.574219 42.148438 46.320312 41.859375 C 46.039062 41.53125 45.929688 41.476562 45.816406 41.597656 Z M 45.816406 41.597656 "/>
<path style=" stroke:none;fill-rule:nonzero;fill:rgb(0%,0%,0%);fill-opacity:1;" d="M 57.5625 38.109375 C 57.46875 38.398438 57.421875 38.4375 57.132812 38.4375 C 56.699219 38.4375 56.625 38.652344 56.925781 38.980469 C 57.121094 39.1875 57.148438 39.300781 57.121094 39.582031 C 57.066406 39.984375 57.140625 40.011719 57.570312 39.796875 C 57.824219 39.664062 57.871094 39.664062 58.050781 39.796875 C 58.171875 39.871094 58.339844 39.9375 58.445312 39.9375 C 58.59375 39.9375 58.613281 39.890625 58.566406 39.535156 C 58.519531 39.1875 58.539062 39.113281 58.753906 38.945312 C 59.082031 38.679688 58.988281 38.4375 58.566406 38.4375 C 58.304688 38.4375 58.226562 38.390625 58.097656 38.109375 C 58.011719 37.929688 57.882812 37.78125 57.804688 37.78125 C 57.730469 37.78125 57.617188 37.929688 57.5625 38.109375 Z M 58.03125 38.539062 C 58.03125 38.570312 58.164062 38.625 58.332031 38.664062 L 58.632812 38.71875 L 58.414062 38.867188 C 58.238281 39 58.210938 39.074219 58.265625 39.347656 L 58.320312 39.664062 L 58.085938 39.507812 C 57.863281 39.367188 57.824219 39.367188 57.601562 39.515625 L 57.347656 39.675781 L 57.402344 39.382812 C 57.449219 39.167969 57.421875 39.054688 57.273438 38.914062 C 57.085938 38.746094 57.085938 38.746094 57.367188 38.691406 C 57.570312 38.644531 57.664062 38.558594 57.710938 38.382812 C 57.777344 38.136719 57.789062 38.136719 57.898438 38.296875 C 57.976562 38.398438 58.03125 38.503906 58.03125 38.539062 Z M 58.03125 38.539062 "/>
<path style=" stroke:none;fill-rule:nonzero;fill:rgb(0%,0%,0%);fill-opacity:1;" d="M 60.019531 37.894531 C 59.972656 37.960938 59.898438 38.109375 59.867188 38.222656 C 59.820312 38.363281 59.726562 38.4375 59.578125 38.4375 C 59.296875 38.4375 59.0625 38.53125 59.0625 38.644531 C 59.0625 38.691406 59.164062 38.820312 59.296875 38.945312 C 59.492188 39.132812 59.511719 39.195312 59.4375 39.46875 C 59.390625 39.636719 59.371094 39.816406 59.398438 39.851562 C 59.484375 39.984375 59.738281 39.945312 59.925781 39.777344 C 60.101562 39.617188 60.121094 39.617188 60.394531 39.777344 C 60.84375 40.039062 60.964844 39.992188 60.910156 39.582031 C 60.882812 39.300781 60.910156 39.1875 61.105469 38.980469 C 61.40625 38.652344 61.332031 38.4375 60.910156 38.4375 C 60.648438 38.4375 60.570312 38.390625 60.441406 38.109375 C 60.273438 37.761719 60.179688 37.707031 60.019531 37.894531 Z M 60.328125 38.4375 C 60.367188 38.570312 60.46875 38.625 60.664062 38.625 C 60.984375 38.625 61.011719 38.71875 60.75 38.953125 C 60.617188 39.074219 60.582031 39.1875 60.628906 39.355469 C 60.675781 39.5625 60.664062 39.582031 60.507812 39.515625 C 60.28125 39.421875 60.09375 39.421875 59.886719 39.515625 C 59.746094 39.570312 59.71875 39.535156 59.71875 39.320312 C 59.71875 39.179688 59.652344 38.992188 59.570312 38.898438 C 59.4375 38.746094 59.445312 38.726562 59.710938 38.671875 C 59.867188 38.632812 60.019531 38.53125 60.046875 38.429688 C 60.121094 38.195312 60.253906 38.203125 60.328125 38.4375 Z M 60.328125 38.4375 "/>
<path style=" stroke:none;fill-rule:nonzero;fill:rgb(0%,0%,0%);fill-opacity:1;" d="M 62.289062 38.109375 C 62.195312 38.335938 62.089844 38.4375 61.960938 38.4375 C 61.855469 38.4375 61.6875 38.484375 61.574219 38.539062 C 61.386719 38.644531 61.386719 38.644531 61.640625 38.90625 C 61.867188 39.140625 61.882812 39.214844 61.828125 39.554688 C 61.773438 39.910156 61.78125 39.9375 61.988281 39.9375 C 62.101562 39.9375 62.277344 39.871094 62.382812 39.796875 C 62.53125 39.683594 62.585938 39.683594 62.820312 39.796875 C 63.289062 40.039062 63.402344 39.992188 63.328125 39.554688 C 63.273438 39.214844 63.289062 39.140625 63.523438 38.898438 C 63.75 38.664062 63.769531 38.605469 63.65625 38.53125 C 63.582031 38.484375 63.402344 38.4375 63.253906 38.4375 C 63.054688 38.4375 62.960938 38.363281 62.839844 38.109375 C 62.757812 37.929688 62.625 37.78125 62.558594 37.78125 C 62.484375 37.78125 62.363281 37.929688 62.289062 38.109375 Z M 63.101562 38.71875 C 63.300781 38.71875 63.300781 38.726562 63.160156 38.886719 C 63.066406 38.980469 63 39.167969 63 39.308594 C 63 39.535156 62.972656 39.542969 62.679688 39.496094 C 62.503906 39.46875 62.34375 39.488281 62.304688 39.554688 C 62.175781 39.757812 62.070312 39.648438 62.128906 39.375 C 62.164062 39.179688 62.128906 39.039062 62.023438 38.914062 C 61.875 38.746094 61.875 38.738281 62.109375 38.679688 C 62.242188 38.644531 62.398438 38.511719 62.457031 38.390625 L 62.558594 38.15625 L 62.726562 38.4375 C 62.839844 38.617188 62.980469 38.71875 63.101562 38.71875 Z M 63.101562 38.71875 "/>
<path style=" stroke:none;fill-rule:nonzero;fill:rgb(0%,0%,0%);fill-opacity:1;" d="M 45.46875 59.953125 L 45.46875 63.9375 L 46.78125 63.9375 L 46.78125 55.96875 L 45.46875 55.96875 Z M 45.46875 59.953125 "/>
<path style=" stroke:none;fill-rule:nonzero;fill:rgb(0%,0%,0%);fill-opacity:1;" d="M 55.960938 56.363281 C 55.960938 56.585938 55.929688 56.878906 55.914062 57.019531 L 55.867188 57.28125 L 57.46875 57.28125 L 57.46875 55.96875 L 55.96875 55.96875 Z M 55.960938 56.363281 "/>
<path style=" stroke:none;fill-rule:nonzero;fill:rgb(0%,0%,0%);fill-opacity:1;" d="M 43.667969 57.441406 L 43.640625 58.828125 L 43.339844 58.855469 L 43.03125 58.882812 L 43.03125 56.390625 L 41.277344 56.410156 C 40.304688 56.417969 39.488281 56.429688 39.449219 56.429688 C 39.402344 56.4375 39.375 57.957031 39.375 59.8125 L 39.375 63.1875 L 41.183594 63.167969 L 42.984375 63.140625 L 43.011719 61.613281 L 43.03125 60.09375 L 43.6875 60.09375 L 43.6875 63.75 L 44.90625 63.75 L 44.90625 56.0625 L 43.695312 56.0625 Z M 41.605469 59.785156 L 41.578125 61.902344 L 41.210938 61.902344 C 40.929688 61.902344 40.828125 61.867188 40.773438 61.726562 C 40.734375 61.632812 40.695312 60.675781 40.695312 59.597656 L 40.6875 57.65625 L 41.625 57.65625 Z M 41.605469 59.785156 "/>
<path style=" stroke:none;fill-rule:nonzero;fill:rgb(0%,0%,0%);fill-opacity:1;" d="M 31.519531 56.972656 L 31.546875 57.609375 L 34.011719 57.636719 L 36.46875 57.65625 L 36.46875 58.105469 C 36.460938 58.527344 36.375 59.597656 36.226562 60.835938 L 36.160156 61.425781 L 36.824219 61.386719 C 37.191406 61.367188 37.507812 61.332031 37.539062 61.304688 C 37.6875 61.152344 37.875 59.304688 37.875 57.910156 L 37.875 56.34375 L 31.492188 56.34375 Z M 31.519531 56.972656 "/>
<path style=" stroke:none;fill-rule:nonzero;fill:rgb(0%,0%,0%);fill-opacity:1;" d="M 61.078125 58.179688 C 60.929688 58.257812 60.695312 58.425781 60.554688 58.554688 C 60.242188 58.855469 60.207031 58.847656 60.132812 58.453125 L 60.074219 58.117188 L 59.351562 58.144531 L 58.640625 58.171875 L 58.640625 59.128906 C 58.640625 59.664062 58.648438 61.226562 58.667969 62.625 L 58.6875 65.15625 L 60.28125 65.15625 L 60.28125 64.03125 C 60.28125 63.414062 60.320312 62.90625 60.355469 62.90625 C 60.402344 62.90625 60.515625 63 60.617188 63.101562 C 60.882812 63.402344 61.339844 63.5625 61.921875 63.5625 C 63.207031 63.5625 63.9375 62.652344 64.011719 60.976562 C 64.078125 59.539062 63.664062 58.613281 62.765625 58.210938 C 62.296875 57.992188 61.460938 57.984375 61.078125 58.179688 Z M 61.820312 59.445312 C 62.15625 59.605469 62.34375 60.074219 62.34375 60.742188 C 62.34375 61.6875 61.988281 62.25 61.378906 62.25 C 60.675781 62.25 60.28125 61.707031 60.28125 60.75 C 60.28125 60.09375 60.46875 59.605469 60.777344 59.457031 C 61.058594 59.324219 61.527344 59.316406 61.820312 59.445312 Z M 61.820312 59.445312 "/>
<path style=" stroke:none;fill-rule:nonzero;fill:rgb(0%,0%,0%);fill-opacity:1;" d="M 50.445312 58.734375 L 50.445312 59.34375 L 51.617188 59.34375 C 52.257812 59.34375 52.78125 59.382812 52.78125 59.417969 C 52.78125 59.464844 52.445312 59.898438 52.023438 60.382812 C 51.609375 60.871094 51.09375 61.5 50.878906 61.78125 C 50.664062 62.0625 50.457031 62.304688 50.417969 62.324219 C 50.371094 62.34375 50.34375 62.605469 50.34375 62.914062 L 50.34375 63.46875 L 55.03125 63.46875 L 55.03125 62.25 L 53.820312 62.25 C 53.148438 62.25 52.585938 62.210938 52.546875 62.15625 C 52.5 62.082031 53.324219 61.03125 54.441406 59.773438 C 54.824219 59.335938 54.863281 59.25 54.890625 58.707031 L 54.929688 58.125 L 50.445312 58.125 Z M 50.445312 58.734375 "/>
<path style=" stroke:none;fill-rule:nonzero;fill:rgb(0%,0%,0%);fill-opacity:1;" d="M 55.941406 58.238281 C 55.867188 58.285156 55.867188 58.460938 55.929688 58.894531 C 55.996094 59.277344 56.007812 59.597656 55.941406 59.8125 C 55.894531 59.980469 55.875 60.871094 55.894531 61.78125 L 55.929688 63.421875 L 57.46875 63.476562 L 57.46875 58.238281 L 56.757812 58.199219 C 56.363281 58.179688 55.996094 58.199219 55.941406 58.238281 Z M 55.941406 58.238281 "/>
<path style=" stroke:none;fill-rule:nonzero;fill:rgb(0%,0%,0%);fill-opacity:1;" d="M 33.375 60.796875 L 33.375 62.15625 L 31.03125 62.15625 L 31.03125 63.46875 L 34.761719 63.449219 L 38.484375 63.421875 L 38.484375 62.203125 L 34.828125 62.109375 L 34.820312 60.984375 C 34.808594 59.269531 34.894531 59.4375 34.078125 59.4375 L 33.375 59.4375 Z M 33.375 60.796875 "/>
<path style=" stroke:none;fill-rule:nonzero;fill:rgb(0%,0%,0%);fill-opacity:1;" d="M 47.925781 62.136719 C 47.851562 62.15625 47.8125 62.417969 47.8125 62.960938 L 47.8125 63.75 L 49.40625 63.75 L 49.40625 62.953125 C 49.40625 62.070312 49.320312 61.949219 48.851562 62.117188 C 48.722656 62.175781 48.476562 62.183594 48.328125 62.15625 C 48.167969 62.117188 47.992188 62.109375 47.925781 62.136719 Z M 47.925781 62.136719 "/>
</g>
</svg>
